# xmcd
#
# Track frame offsets: 
#        150
#        15441
#        31785
#        44469
#        57894
#        70494
#        88122
#        102483
#        119298
#        135468
#        149619
#        163322
#        175457
#        193115
#
# Disc length: 2762 seconds
#
# Revision: 0
# Processed by: cddbd v1.5.2PL0 Copyright (c) Steve Scherf et al.
# Submitted via: ExactAudioCopy v0.95b4
#
DISCID=cc0ac80e
DTITLE=The Blue Genes - It's all in the Jeans
DYEAR=2003
DGENRE=Blues
TTITLE0=Mojo Hand
TTITLE1=Little Red Rooster
TTITLE2=Cocaine Blues
TTITLE3=I'm Too Tired
TTITLE4=My Baby Left Me
TTITLE5=Twelve Bar Blues
TTITLE6=I Do The Dishes
TTITLE7=Boom Boom
TTITLE8=Borrow Love And Go
TTITLE9=Six Days On The Road
TTITLE10=Shake Your Money Maker
TTITLE11=Rip It Up
TTITLE12=Walking The Dog
TTITLE13=Twenty Flight Rock
EXTD=
EXTT0=
EXTT1=
EXTT2=
EXTT3=
EXTT4=
EXTT5=
EXTT6=
EXTT7=
EXTT8=
EXTT9=
EXTT10=
EXTT11=
EXTT12=
EXTT13=
PLAYORDER=
